<svg width="4" height="5" viewBox="0 0 4 5" fill="none" xmlns="http://www.w3.org/2000/svg">
<path d="M0.161004 1.82422L0.128636 1.49585C0.114931 1.35681 0.211961 1.21647 0.345038 1.18286L3.1096 0.468072C3.24332 0.433536 3.36251 0.518028 3.37543 0.656512L3.65886 3.53197C3.67257 3.67101 3.57554 3.81135 3.44246 3.84496L3.12667 3.92653C2.99153 3.96143 2.87126 3.87342 2.86026 3.73217L2.72926 1.98148L0.894637 4.63498C0.809736 4.75777 0.657528 4.79709 0.553236 4.72316L0.302308 4.54528C0.198015 4.47135 0.182415 4.31308 0.267316 4.19028L2.10194 1.53679L0.432521 2.01119C0.297036 2.04998 0.174216 1.96567 0.161004 1.82422Z" fill="#F4F9FE"/>
</svg>
